<?xml version="1.0" encoding="utf-8"?>
<!-- Generator: Adobe Illustrator 23.0.3, SVG Export Plug-In . SVG Version: 6.00 Build 0)  -->
<svg version="1.1" id="Layer_1" xmlns="http://www.w3.org/2000/svg" xmlns:xlink="http://www.w3.org/1999/xlink" x="0px" y="0px"
	 viewBox="0 0 32 32" style="enable-background:new 0 0 32 32;" xml:space="preserve">
<style type="text/css">
	.st0{fill:#FFFFFF;}
</style>
<title>as_alignment_nolabel_blue</title>
<polygon class="st0" points="28,6 28,4 26,4 26,10 22,10 22,8 20,8 20,6 18,6 18,2 16,2 16,4 14,4 14,8 12,8 12,10 8,10 8,4 6,4 
	6,8 4,8 4,2 2,2 2,10 2,12 30,12 30,10 30,6 "/>
<g>
	<polygon class="st0" points="24,14 24,16 28,16 28,18 30,18 30,16 30,14 	"/>
	<rect x="26" y="18" class="st0" width="2" height="2"/>
</g>
<polygon class="st0" points="12,14 12,16 13,16 13,18 14,18 14,20 13,20 13,22 17,22 17,24 13,24 13,26 15,26 15,28 17,28 17,26 
	19,26 19,24 19,22 19,20 18,20 18,18 21,18 21,16 22,16 22,14 "/>
<polygon class="st0" points="2,14 2,16 4,16 4,18 6,18 6,20 6,22 4,22 4,20 2,20 2,22 2,24 2,26 2,28 2,30 4,30 4,28 6,28 6,26 
	6,24 8,24 8,22 8,20 8,18 8,16 8,14 "/>
</svg>
