<?xml version="1.0" encoding="utf-8"?>
<!-- Generator: Adobe Illustrator 23.0.3, SVG Export Plug-In . SVG Version: 6.00 Build 0)  -->
<svg version="1.1" id="Layer_1" xmlns="http://www.w3.org/2000/svg" xmlns:xlink="http://www.w3.org/1999/xlink" x="0px" y="0px"
	 viewBox="0 0 32 32" style="enable-background:new 0 0 32 32;" xml:space="preserve">
<style type="text/css">
	.st0{fill:#000D9F;}
</style>
<title>as_alignment_nolabel_blue</title>
<rect x="6.5" y="7.5" class="st0" width="2" height="5"/>
<rect x="20.9" y="7.5" class="st0" width="2" height="5"/>
<rect x="15.1" y="7.4" class="st0" width="3" height="5"/>
<rect x="11" y="7.5" class="st0" width="2" height="5"/>
<rect x="7" y="13.8" class="st0" width="4" height="5"/>
<rect x="11" y="20.1" class="st0" width="2" height="5"/>
<rect x="19.9" y="13.8" class="st0" width="8" height="5"/>
<rect x="14.2" y="13.8" class="st0" width="4" height="5"/>
<rect x="19.9" y="20.1" class="st0" width="3" height="5"/>
<rect x="3.5" y="13.8" class="st0" width="1" height="5"/>
<rect x="9" y="15.8" class="st0" width="18.6" height="1"/>
<rect x="15.4" y="22.1" class="st0" width="11" height="1"/>
<rect x="6.5" y="20.1" class="st0" width="2" height="5"/>
<rect x="6.5" y="22.1" class="st0" width="6.5" height="1"/>
<rect x="15.1" y="20.2" class="st0" width="3" height="5"/>
<rect x="7" y="9.5" class="st0" width="6" height="1"/>
</svg>
