<?xml version="1.0" encoding="utf-8"?>
<!-- Generator: Adobe Illustrator 23.0.3, SVG Export Plug-In . SVG Version: 6.00 Build 0)  -->
<svg version="1.1" id="Layer_1" xmlns="http://www.w3.org/2000/svg" xmlns:xlink="http://www.w3.org/1999/xlink" x="0px" y="0px"
	 viewBox="0 0 32 32" style="enable-background:new 0 0 32 32;" xml:space="preserve">
<style type="text/css">
	.st0{opacity:0.5;}
	.st1{fill:#000D9F;}
</style>
<title>as_alignment_nolabel_blue</title>
<g class="st0">
	<polygon class="st1" points="8.5,10.5 11,10.5 11,12.5 13,12.5 13,10.5 13,9.5 13,7.5 11,7.5 11,9.5 8.5,9.5 8.5,7.5 6.5,7.5 
		6.5,12.5 8.5,12.5 	"/>
	<rect x="20.9" y="7.5" class="st1" width="2" height="5"/>
	<rect x="15.1" y="7.4" class="st1" width="3" height="5"/>
	<polygon class="st1" points="11,22.1 8.5,22.1 8.5,20.1 6.5,20.1 6.5,22.1 6.5,22.1 6.5,23.1 6.5,23.1 6.5,25.1 8.5,25.1 8.5,23.1 
		11,23.1 11,25.1 13,25.1 13,23.1 13,22.1 13,20.1 11,20.1 	"/>
	<polygon class="st1" points="19.9,13.8 19.9,15.8 18.2,15.8 18.2,13.8 14.2,13.8 14.2,15.8 11,15.8 11,13.8 7,13.8 7,18.8 11,18.8 
		11,16.8 14.2,16.8 14.2,18.8 18.2,18.8 18.2,16.8 19.9,16.8 19.9,18.8 27.9,18.8 27.9,13.8 	"/>
	<polygon class="st1" points="22.9,20.1 19.9,20.1 19.9,22.1 18.1,22.1 18.1,20.2 15.1,20.2 15.1,25.2 18.1,25.2 18.1,23.1 
		19.9,23.1 19.9,25.1 22.9,25.1 22.9,23.1 26.4,23.1 26.4,22.1 22.9,22.1 	"/>
	<rect x="3.5" y="13.8" class="st1" width="1" height="5"/>
</g>
</svg>
