<?xml version="1.0" encoding="utf-8"?>
<!-- Generator: Adobe Illustrator 23.0.3, SVG Export Plug-In . SVG Version: 6.00 Build 0)  -->
<svg version="1.1" id="Layer_1" xmlns="http://www.w3.org/2000/svg" xmlns:xlink="http://www.w3.org/1999/xlink" x="0px" y="0px"
	 viewBox="0 0 32 32" style="enable-background:new 0 0 32 32;" xml:space="preserve">
<style type="text/css">
	.st0{fill:#FFFFFF;}
</style>
<title>as_alignment_nolabel_blue</title>
<g>
	<polygon class="st0" points="4,12 4,14 4,16 6,16 6,18 8,18 8,20 4,20 4,22 6,22 6,24 4,24 4,26 10,26 10,24 10,22 10,20 10,18 
		10,16 10,14 6,14 6,12 10,12 10,10 4,10 	"/>
	<polygon class="st0" points="14,12 12,12 12,14 14,14 14,16 14,18 12,18 12,20 12,22 16,22 16,24 12,24 12,26 18,26 18,24 18,22 
		18,20 18,18 16,18 16,16 18,16 18,14 16,14 16,12 18,12 18,10 14,10 	"/>
	<polygon class="st0" points="20,10 20,12 22,12 22,14 20,14 20,16 22,16 22,18 22,20 20,20 20,22 20,24 22,24 22,26 26,26 26,24 
		24,24 24,22 24,20 24,18 28,18 28,16 26,16 26,14 28,14 28,12 28,10 	"/>
</g>
</svg>
